<svg width="40" height="40" viewBox="0 0 40 40" fill="none" xmlns="http://www.w3.org/2000/svg">
<path d="M34.0018 24.0013C32.8151 24.0013 31.655 23.6494 30.6682 22.9901C29.6815 22.3307 28.9124 21.3936 28.4582 20.2972C28.0041 19.2008 27.8853 17.9943 28.1168 16.8304C28.3483 15.6664 28.9198 14.5973 29.759 13.7581C30.5981 12.9189 31.6673 12.3475 32.8312 12.1159C33.9952 11.8844 35.2016 12.0032 36.298 12.4574C37.3945 12.9115 38.3316 13.6806 38.9909 14.6674C39.6502 15.6541 40.0021 16.8142 40.0021 18.001C40.0006 19.5919 39.3679 21.1171 38.2429 22.2421C37.118 23.367 35.5927 23.9997 34.0018 24.0013ZM12.0006 26.0014C8.81901 25.9977 5.76875 24.7322 3.519 22.4824C1.26925 20.2326 0.00370542 17.1824 0 14.0008V2.00011C0 1.46965 0.210725 0.960911 0.585818 0.585818C0.960911 0.210725 1.46965 0 2.00011 0H6.00032C6.53078 0 7.03952 0.210725 7.41461 0.585818C7.7897 0.960911 8.00043 1.46965 8.00043 2.00011C8.00043 2.53057 7.7897 3.0393 7.41461 3.4144C7.03952 3.78949 6.53078 4.00021 6.00032 4.00021H4.00021V14.0008C4.00021 16.1226 4.84311 18.1575 6.34349 19.6579C7.84386 21.1583 9.8788 22.0012 12.0006 22.0012C14.1225 22.0012 16.1574 21.1583 17.6578 19.6579C19.1582 18.1575 20.0011 16.1226 20.0011 14.0008V4.00021H18.001C17.4705 4.00021 16.9618 3.78949 16.5867 3.4144C16.2116 3.0393 16.0009 2.53057 16.0009 2.00011C16.0009 1.46965 16.2116 0.960911 16.5867 0.585818C16.9618 0.210725 17.4705 0 18.001 0H22.0012C22.5316 0 23.0404 0.210725 23.4155 0.585818C23.7906 0.960911 24.0013 1.46965 24.0013 2.00011V14.0008C23.9976 17.1824 22.732 20.2326 20.4823 22.4824C18.2325 24.7322 15.1823 25.9977 12.0006 26.0014Z" fill="#CDCDCD"/>
<path d="M34.0023 24.0047C33.3193 23.9981 32.6427 23.8736 32.0022 23.6367V27.0049C32.0022 29.392 31.0539 31.6813 29.366 33.3692C27.6781 35.0571 25.3888 36.0054 23.0017 36.0054C20.6146 36.0054 18.3253 35.0571 16.6374 33.3692C14.9495 31.6813 14.0012 29.392 14.0012 27.0049V25.8248C12.6787 26.0657 11.3235 26.0657 10.001 25.8248V27.0049C10.001 30.4529 11.3707 33.7597 13.8088 36.1978C16.2469 38.6359 19.5537 40.0056 23.0017 40.0056C26.4497 40.0056 29.7564 38.6359 32.1946 36.1978C34.6327 33.7597 36.0024 30.4529 36.0024 27.0049V23.6367C35.3618 23.8736 34.6852 23.9981 34.0023 24.0047Z" fill="#999999"/>
</svg>
