<svg width="67" height="60" viewBox="0 0 67 60" fill="none" xmlns="http://www.w3.org/2000/svg">
<path d="M26.5605 3.88648C29.5128 -1.29549 37.1553 -1.2955 40.1075 3.88648L65.6818 48.7757C68.551 53.812 64.8165 60.0012 58.9082 60.0012H7.75977C1.85157 60.0012 -1.88302 53.812 0.986255 48.7757L26.5605 3.88648Z" fill="#FFD572"/>
<path d="M36.6668 46.6693C36.6668 48.5103 35.1744 50.0027 33.3334 50.0027C31.4924 50.0027 30 48.5103 30 46.6693C30 44.8284 31.4924 43.3359 33.3334 43.3359C35.1744 43.3359 36.6668 44.8284 36.6668 46.6693Z" fill="#28303F"/>
<path fill-rule="evenodd" clip-rule="evenodd" d="M33.3321 17.5039C34.7128 17.5039 35.8321 18.6232 35.8321 20.004V36.671C35.8321 38.0517 34.7128 39.171 33.3321 39.171C31.9513 39.171 30.832 38.0517 30.832 36.671V20.004C30.832 18.6232 31.9513 17.5039 33.3321 17.5039Z" fill="#28303F"/>
</svg>
