<svg width="42" height="42" viewBox="0 0 42 42" fill="none" xmlns="http://www.w3.org/2000/svg">
<path d="M39.0504 20.5539C38.5473 20.5548 38.0615 20.3704 37.6857 20.0359L20.553 4.80645L3.42037 20.0359C3.01264 20.3979 2.47784 20.583 1.9336 20.5507C1.38936 20.5183 0.88028 20.271 0.518341 19.8633C0.156401 19.4556 -0.0287454 18.9208 0.00363123 18.3765C0.0360079 17.8323 0.283256 17.3232 0.690983 16.9613L19.1883 0.519171C19.5643 0.184748 20.0499 0 20.553 0C21.0562 0 21.5418 0.184748 21.9177 0.519171L40.4151 16.9613C40.727 17.238 40.9474 17.6031 41.0469 18.0081C41.1464 18.413 41.1204 18.8386 40.9723 19.2284C40.8243 19.6183 40.5611 19.9538 40.2178 20.1905C39.8746 20.4273 39.4674 20.554 39.0504 20.5539Z" fill="#7EA1C1"/>
<path d="M24.663 22.6066H22.6078V20.5514C22.6078 20.0063 22.3912 19.4835 22.0058 19.0981C21.6204 18.7126 21.0976 18.4961 20.5525 18.4961C20.0074 18.4961 19.4847 18.7126 19.0992 19.0981C18.7138 19.4835 18.4972 20.0063 18.4972 20.5514V22.6066H16.442C15.8969 22.6066 15.3741 22.8232 14.9887 23.2086C14.6033 23.594 14.3867 24.1168 14.3867 24.6619C14.3867 25.207 14.6033 25.7297 14.9887 26.1152C15.3741 26.5006 15.8969 26.7171 16.442 26.7171H18.4972V28.7724C18.4972 29.3175 18.7138 29.8403 19.0992 30.2257C19.4847 30.6111 20.0074 30.8277 20.5525 30.8277C21.0976 30.8277 21.6204 30.6111 22.0058 30.2257C22.3912 29.8403 22.6078 29.3175 22.6078 28.7724V26.7171H24.663C25.2081 26.7171 25.7309 26.5006 26.1163 26.1152C26.5018 25.7297 26.7183 25.207 26.7183 24.6619C26.7183 24.1168 26.5018 23.594 26.1163 23.2086C25.7309 22.8232 25.2081 22.6066 24.663 22.6066Z" fill="#F08D8D"/>
<path d="M20.5525 4.80469L4.11035 19.4197V39.0495C4.11035 39.5946 4.32689 40.1173 4.71232 40.5028C5.09776 40.8882 5.62052 41.1047 6.16561 41.1047H34.9393C35.4844 41.1047 36.0071 40.8882 36.3926 40.5028C36.778 40.1173 36.9946 39.5946 36.9946 39.0495V19.4197L20.5525 4.80469ZM24.663 26.7179H22.6077V28.7732C22.6077 29.3183 22.3912 29.841 22.0057 30.2265C21.6203 30.6119 21.0975 30.8284 20.5525 30.8284C20.0074 30.8284 19.4846 30.6119 19.0992 30.2265C18.7137 29.841 18.4972 29.3183 18.4972 28.7732V26.7179H16.4419C15.8968 26.7179 15.3741 26.5014 14.9886 26.1159C14.6032 25.7305 14.3867 25.2077 14.3867 24.6626C14.3867 24.1176 14.6032 23.5948 14.9886 23.2093C15.3741 22.8239 15.8968 22.6074 16.4419 22.6074H18.4972V20.5521C18.4972 20.007 18.7137 19.4843 19.0992 19.0988C19.4846 18.7134 20.0074 18.4969 20.5525 18.4969C21.0975 18.4969 21.6203 18.7134 22.0057 19.0988C22.3912 19.4843 22.6077 20.007 22.6077 20.5521V22.6074H24.663C25.2081 22.6074 25.7308 22.8239 26.1163 23.2093C26.5017 23.5948 26.7182 24.1176 26.7182 24.6626C26.7182 25.2077 26.5017 25.7305 26.1163 26.1159C25.7308 26.5014 25.2081 26.7179 24.663 26.7179Z" fill="white"/>
</svg>
