<svg width="39" height="39" viewBox="0 0 39 39" fill="none" xmlns="http://www.w3.org/2000/svg">
<path d="M23.4974 8.72389H21.958V7.18442C21.958 6.36783 21.6336 5.58469 21.0562 5.00727C20.4787 4.42986 19.6956 4.10547 18.879 4.10547C18.0624 4.10547 17.2793 4.42986 16.7019 5.00727C16.1245 5.58469 15.8001 6.36783 15.8001 7.18442V8.72389H14.2606C13.444 8.72389 12.6609 9.04828 12.0834 9.62569C11.506 10.2031 11.1816 10.9862 11.1816 11.8028C11.1816 12.6194 11.506 13.4026 12.0834 13.98C12.6609 14.5574 13.444 14.8818 14.2606 14.8818H15.8001V16.4213C15.8001 17.2378 16.1245 18.021 16.7019 18.5984C17.2793 19.1758 18.0624 19.5002 18.879 19.5002C19.6956 19.5002 20.4787 19.1758 21.0562 18.5984C21.6336 18.021 21.958 17.2378 21.958 16.4213V14.8818H23.4974C24.314 14.8818 25.0972 14.5574 25.6746 13.98C26.252 13.4026 26.5764 12.6194 26.5764 11.8028C26.5764 10.9862 26.252 10.2031 25.6746 9.62569C25.0972 9.04828 24.314 8.72389 23.4974 8.72389Z" fill="#F08D8D"/>
<path d="M37.1429 9.28571H31.5714V1.85714C31.5714 1.3646 31.3758 0.892226 31.0275 0.543945C30.6792 0.195663 30.2068 0 29.7143 0H9.28571C8.79317 0 8.3208 0.195663 7.97252 0.543945C7.62423 0.892226 7.42857 1.3646 7.42857 1.85714V9.28571H1.85714C1.3646 9.28571 0.892226 9.48138 0.543945 9.82966C0.195663 10.1779 0 10.6503 0 11.1429V37.1429C0 37.6354 0.195663 38.1078 0.543945 38.4561C0.892226 38.8043 1.3646 39 1.85714 39H37.1429C37.6354 39 38.1078 38.8043 38.4561 38.4561C38.8043 38.1078 39 37.6354 39 37.1429V11.1429C39 10.6503 38.8043 10.1779 38.4561 9.82966C38.1078 9.48138 37.6354 9.28571 37.1429 9.28571ZM11.1429 31.5714H9.28571C8.79317 31.5714 8.3208 31.3758 7.97252 31.0275C7.62423 30.6792 7.42857 30.2068 7.42857 29.7143C7.42857 29.2217 7.62423 28.7494 7.97252 28.4011C8.3208 28.0528 8.79317 27.8571 9.28571 27.8571H11.1429C11.6354 27.8571 12.1078 28.0528 12.4561 28.4011C12.8043 28.7494 13 29.2217 13 29.7143C13 30.2068 12.8043 30.6792 12.4561 31.0275C12.1078 31.3758 11.6354 31.5714 11.1429 31.5714ZM11.1429 24.1429H9.28571C8.79317 24.1429 8.3208 23.9472 7.97252 23.5989C7.62423 23.2506 7.42857 22.7783 7.42857 22.2857C7.42857 21.7932 7.62423 21.3208 7.97252 20.9725C8.3208 20.6242 8.79317 20.4286 9.28571 20.4286H11.1429C11.6354 20.4286 12.1078 20.6242 12.4561 20.9725C12.8043 21.3208 13 21.7932 13 22.2857C13 22.7783 12.8043 23.2506 12.4561 23.5989C12.1078 23.9472 11.6354 24.1429 11.1429 24.1429ZM20.4286 31.5714H18.5714C18.0789 31.5714 17.6065 31.3758 17.2582 31.0275C16.9099 30.6792 16.7143 30.2068 16.7143 29.7143C16.7143 29.2217 16.9099 28.7494 17.2582 28.4011C17.6065 28.0528 18.0789 27.8571 18.5714 27.8571H20.4286C20.9211 27.8571 21.3935 28.0528 21.7418 28.4011C22.0901 28.7494 22.2857 29.2217 22.2857 29.7143C22.2857 30.2068 22.0901 30.6792 21.7418 31.0275C21.3935 31.3758 20.9211 31.5714 20.4286 31.5714ZM20.4286 24.1429H18.5714C18.0789 24.1429 17.6065 23.9472 17.2582 23.5989C16.9099 23.2506 16.7143 22.7783 16.7143 22.2857C16.7143 21.7932 16.9099 21.3208 17.2582 20.9725C17.6065 20.6242 18.0789 20.4286 18.5714 20.4286H20.4286C20.9211 20.4286 21.3935 20.6242 21.7418 20.9725C22.0901 21.3208 22.2857 21.7932 22.2857 22.2857C22.2857 22.7783 22.0901 23.2506 21.7418 23.5989C21.3935 23.9472 20.9211 24.1429 20.4286 24.1429ZM22.2857 13.9286H21.3571V14.8571C21.3571 15.3497 21.1615 15.8221 20.8132 16.1703C20.4649 16.5186 19.9925 16.7143 19.5 16.7143C19.0075 16.7143 18.5351 16.5186 18.1868 16.1703C17.8385 15.8221 17.6429 15.3497 17.6429 14.8571V13.9286H16.7143C16.2217 13.9286 15.7494 13.7329 15.4011 13.3846C15.0528 13.0363 14.8571 12.564 14.8571 12.0714C14.8571 11.5789 15.0528 11.1065 15.4011 10.7582C15.7494 10.4099 16.2217 10.2143 16.7143 10.2143H17.6429V9.28571C17.6429 8.79317 17.8385 8.3208 18.1868 7.97252C18.5351 7.62423 19.0075 7.42857 19.5 7.42857C19.9925 7.42857 20.4649 7.62423 20.8132 7.97252C21.1615 8.3208 21.3571 8.79317 21.3571 9.28571V10.2143H22.2857C22.7783 10.2143 23.2506 10.4099 23.5989 10.7582C23.9472 11.1065 24.1429 11.5789 24.1429 12.0714C24.1429 12.564 23.9472 13.0363 23.5989 13.3846C23.2506 13.7329 22.7783 13.9286 22.2857 13.9286ZM29.7143 31.5714H27.8571C27.3646 31.5714 26.8922 31.3758 26.5439 31.0275C26.1957 30.6792 26 30.2068 26 29.7143C26 29.2217 26.1957 28.7494 26.5439 28.4011C26.8922 28.0528 27.3646 27.8571 27.8571 27.8571H29.7143C30.2068 27.8571 30.6792 28.0528 31.0275 28.4011C31.3758 28.7494 31.5714 29.2217 31.5714 29.7143C31.5714 30.2068 31.3758 30.6792 31.0275 31.0275C30.6792 31.3758 30.2068 31.5714 29.7143 31.5714ZM29.7143 24.1429H27.8571C27.3646 24.1429 26.8922 23.9472 26.5439 23.5989C26.1957 23.2506 26 22.7783 26 22.2857C26 21.7932 26.1957 21.3208 26.5439 20.9725C26.8922 20.6242 27.3646 20.4286 27.8571 20.4286H29.7143C30.2068 20.4286 30.6792 20.6242 31.0275 20.9725C31.3758 21.3208 31.5714 21.7932 31.5714 22.2857C31.5714 22.7783 31.3758 23.2506 31.0275 23.5989C30.6792 23.9472 30.2068 24.1429 29.7143 24.1429Z" fill="#D6DFFF"/>
</svg>
