<svg width="42" height="42" viewBox="0 0 42 42" fill="none" xmlns="http://www.w3.org/2000/svg">
<path d="M20.5518 32.8829C19.1291 32.8829 17.7383 32.461 16.5554 31.6706C15.3724 30.8802 14.4504 29.7567 13.906 28.4423C13.3615 27.1279 13.2191 25.6815 13.4966 24.2862C13.7742 22.8908 14.4593 21.609 15.4653 20.603C16.4713 19.597 17.7531 18.9119 19.1485 18.6343C20.5438 18.3568 21.9902 18.4992 23.3046 19.0437C24.619 19.5881 25.7425 20.5101 26.5329 21.6931C27.3234 22.876 27.7452 24.2668 27.7452 25.6895C27.7431 27.5967 26.9845 29.4251 25.6359 30.7736C24.2874 32.1222 22.459 32.8808 20.5518 32.8829Z" fill="#BBDAFF"/>
<path d="M25.9786 30.3594C25.3126 31.1499 24.4819 31.7853 23.5447 32.2212C22.6075 32.6571 21.5863 32.883 20.5527 32.883C19.519 32.883 18.4979 32.6571 17.5607 32.2212C16.6234 31.7853 15.7928 31.1499 15.1268 30.3594C13.6469 31.2767 12.4251 32.5558 11.5764 34.0762C10.7278 35.5965 10.2804 37.3079 10.2764 39.049C10.2764 39.5941 10.4929 40.1169 10.8783 40.5023C11.2638 40.8878 11.7865 41.1043 12.3316 41.1043H28.7737C29.3188 41.1043 29.8416 40.8878 30.227 40.5023C30.6125 40.1169 30.829 39.5941 30.829 39.049C30.825 37.3079 30.3775 35.5965 29.5289 34.0762C28.6803 32.5558 27.4585 31.2767 25.9786 30.3594Z" fill="#A5BEFF"/>
<path d="M39.0504 20.5539C38.5473 20.5548 38.0615 20.3704 37.6857 20.0359L20.553 4.80645L3.42037 20.0359C3.01264 20.3979 2.47784 20.583 1.9336 20.5507C1.38936 20.5183 0.88028 20.271 0.518341 19.8633C0.156401 19.4556 -0.0287454 18.9208 0.00363123 18.3765C0.0360079 17.8323 0.283256 17.3232 0.690983 16.9613L19.1883 0.519171C19.5643 0.184748 20.0499 0 20.553 0C21.0562 0 21.5418 0.184748 21.9177 0.519171L40.4151 16.9613C40.727 17.238 40.9474 17.6031 41.0469 18.0081C41.1464 18.413 41.1204 18.8386 40.9723 19.2284C40.8243 19.6183 40.5611 19.9538 40.2178 20.1905C39.8746 20.4273 39.4674 20.554 39.0504 20.5539Z" fill="#F08D8D"/>
<path d="M20.5525 4.80469L4.11035 19.4197V39.0495C4.11035 39.5946 4.32689 40.1173 4.71232 40.5028C5.09776 40.8882 5.62052 41.1047 6.16561 41.1047H12.3314C11.7863 41.1047 11.2636 40.8882 10.8781 40.5028C10.4927 40.1173 10.2761 39.5946 10.2761 39.0495C10.2802 37.3084 10.7276 35.5969 11.5762 34.0766C12.4248 32.5563 13.6467 31.2772 15.1266 30.3598C13.9938 29.0672 13.3661 27.409 13.359 25.6903C13.359 23.7825 14.1169 21.9528 15.4659 20.6038C16.815 19.2547 18.6446 18.4968 20.5525 18.4968C22.4603 18.4968 24.2899 19.2547 25.639 20.6038C26.988 21.9528 27.7459 23.7825 27.7459 25.6903C27.7388 27.409 27.1111 29.0672 25.9784 30.3598C27.4582 31.2772 28.6801 32.5563 29.5287 34.0766C30.3773 35.5969 30.8247 37.3084 30.8288 39.0495C30.8288 39.5946 30.6122 40.1173 30.2268 40.5028C29.8414 40.8882 29.3186 41.1047 28.7735 41.1047H34.9393C35.4844 41.1047 36.0072 40.8882 36.3926 40.5028C36.778 40.1173 36.9946 39.5946 36.9946 39.0495V19.4197L20.5525 4.80469Z" fill="#FFFFEA"/>
</svg>
