<svg width="18" height="20" viewBox="0 0 18 20" fill="none" xmlns="http://www.w3.org/2000/svg">
<path d="M8.93164 19.8711C8.76562 19.8711 8.51172 19.8125 8.25781 19.6758C2.75 16.6582 0.826172 15.2812 0.826172 11.7852V4.50977C0.826172 3.37695 1.26562 2.95703 2.22266 2.56641C3.28711 2.12695 6.88086 0.828125 7.93555 0.496094C8.24805 0.408203 8.60938 0.330078 8.93164 0.330078C9.26367 0.330078 9.625 0.398438 9.9375 0.496094C10.9824 0.847656 14.5859 2.12695 15.6504 2.56641C16.6074 2.9668 17.0469 3.37695 17.0469 4.50977V11.7852C17.0469 15.2812 15.2012 16.7949 9.61523 19.6758C9.36133 19.8027 9.10742 19.8711 8.93164 19.8711ZM5.29883 13.6309C5.29883 14.4121 5.64062 14.7637 6.36328 14.7637H11.5195C12.2324 14.7637 12.5742 14.4121 12.5742 13.6309V9.68555C12.5742 8.98242 12.291 8.63086 11.7246 8.57227V7.42969C11.7246 5.56445 10.5918 4.31445 8.94141 4.31445C7.28125 4.31445 6.14844 5.56445 6.14844 7.42969V8.57227C5.58203 8.63086 5.29883 8.98242 5.29883 9.68555V13.6309ZM7.34961 8.55273V7.32227C7.34961 6.20898 7.98438 5.4668 8.93164 5.4668C9.88867 5.4668 10.5234 6.20898 10.5234 7.32227V8.55273H7.34961Z" fill="#575DE1"/>
</svg>
