<svg width="19" height="20" viewBox="0 0 19 20" fill="none" xmlns="http://www.w3.org/2000/svg">
<path fill-rule="evenodd" clip-rule="evenodd" d="M2.5 0H16.5C17.6046 0 18.5 0.895431 18.5 2V17.1543C18.5 18.5396 17.1259 19.5053 15.8226 19.0361L14.2608 18.4739C13.7728 18.2982 13.2356 18.319 12.7626 18.5318L10.3207 19.6307C9.79878 19.8655 9.20122 19.8655 8.67927 19.6307L6.23737 18.5318C5.76439 18.319 5.22721 18.2982 4.7392 18.4739L3.17744 19.0361C1.87412 19.5053 0.5 18.5396 0.5 17.1543V2C0.5 0.895431 1.39543 0 2.5 0ZM5.5 4.25C5.08579 4.25 4.75 4.58579 4.75 5C4.75 5.41421 5.08579 5.75 5.5 5.75H9.5C9.91421 5.75 10.25 5.41421 10.25 5C10.25 4.58579 9.91421 4.25 9.5 4.25H5.5ZM5.5 8.25C5.08579 8.25 4.75 8.58579 4.75 9C4.75 9.41421 5.08579 9.75 5.5 9.75H13.5C13.9142 9.75 14.25 9.41421 14.25 9C14.25 8.58579 13.9142 8.25 13.5 8.25H5.5ZM5.5 12.25C5.08579 12.25 4.75 12.5858 4.75 13C4.75 13.4142 5.08579 13.75 5.5 13.75H13.5C13.9142 13.75 14.25 13.4142 14.25 13C14.25 12.5858 13.9142 12.25 13.5 12.25H5.5Z" fill="#A3A3A3"/>
</svg>
