<svg width="18" height="18" viewBox="0 0 18 18" fill="none" xmlns="http://www.w3.org/2000/svg">
<path fill-rule="evenodd" clip-rule="evenodd" d="M2.5 0C1.11929 0 0 1.11929 0 2.5V15.5C0 16.8807 1.11929 18 2.5 18H15.5C16.8807 18 18 16.8807 18 15.5V2.5C18 1.11929 16.8807 0 15.5 0H2.5ZM4.5 4.25C4.08579 4.25 3.75 4.58579 3.75 5C3.75 5.41421 4.08579 5.75 4.5 5.75H13.5C13.9142 5.75 14.25 5.41421 14.25 5C14.25 4.58579 13.9142 4.25 13.5 4.25H4.5ZM3.75 9C3.75 8.58579 4.08579 8.25 4.5 8.25H13.5C13.9142 8.25 14.25 8.58579 14.25 9C14.25 9.41421 13.9142 9.75 13.5 9.75H4.5C4.08579 9.75 3.75 9.41421 3.75 9ZM4.5 12.25C4.08579 12.25 3.75 12.5858 3.75 13C3.75 13.4142 4.08579 13.75 4.5 13.75H11.5C11.9142 13.75 12.25 13.4142 12.25 13C12.25 12.5858 11.9142 12.25 11.5 12.25H4.5Z" fill="#A3A3A3"/>
</svg>
