<svg width="18" height="20" viewBox="0 0 18 20" fill="none" xmlns="http://www.w3.org/2000/svg">
<path fill-rule="evenodd" clip-rule="evenodd" d="M18 8.15033V15.9668C18 18.1943 16.2091 20 14 20H4C1.79086 20 0 18.1943 0 15.9668V8.15033C0 6.93937 0.539645 5.7925 1.46986 5.02652L6.46986 0.909348C7.9423 -0.303114 10.0577 -0.303117 11.5301 0.909345L16.5301 5.02652C17.4604 5.7925 18 6.93937 18 8.15033ZM7 15.25C6.58579 15.25 6.25 15.5858 6.25 16C6.25 16.4142 6.58579 16.75 7 16.75H11C11.4142 16.75 11.75 16.4142 11.75 16C11.75 15.5858 11.4142 15.25 11 15.25H7Z" fill="#575DE1"/>
</svg>
