<svg width="57" height="37" viewBox="0 0 57 37" fill="none" xmlns="http://www.w3.org/2000/svg">
<path fill-rule="evenodd" clip-rule="evenodd" d="M48.7466 3.12487H8.25156C5.55932 3.12487 3.37682 5.30736 3.37682 7.99961V29.0005C3.37682 31.6926 5.55932 33.8751 8.25156 33.8751H48.7466C51.4388 33.8751 53.6213 31.6926 53.6213 29.0005V7.99961C53.6213 5.30736 51.4388 3.12487 48.7466 3.12487ZM8.25156 0.5C4.10964 0.5 0.751953 3.85769 0.751953 7.99961V29.0005C0.751953 33.1423 4.10964 36.5 8.25156 36.5H48.7466C52.8885 36.5 56.2461 33.1423 56.2461 29.0005V7.99961C56.2461 3.85769 52.8885 0.5 48.7466 0.5H8.25156ZM39.3242 18.7977C41.6418 18.7977 43.5206 16.9188 43.5206 14.601C43.5206 12.2832 41.6418 10.4043 39.3242 10.4043C37.0067 10.4043 35.1279 12.2832 35.1279 14.601C35.1279 16.9188 37.0067 18.7977 39.3242 18.7977ZM47.0789 25.031C47.5007 26.0494 47.7177 27.1407 47.7177 28.2431H39.3252H30.9326C30.9326 27.1407 31.1496 26.0494 31.5714 25.031C31.9932 24.0126 32.6114 23.0875 33.3908 22.3081C34.17 21.5287 35.0952 20.9104 36.1134 20.4886C37.1318 20.0667 38.223 19.8496 39.3252 19.8496C40.4273 19.8496 41.5187 20.0667 42.5369 20.4886C43.5551 20.9104 44.4803 21.5287 45.2597 22.3081C46.0389 23.0875 46.6572 24.0126 47.0789 25.031ZM11.9745 23.7502C11.2497 23.7502 10.6621 24.3377 10.6621 25.0625C10.6621 25.7875 11.2497 26.375 11.9745 26.375H18.3488C19.0736 26.375 19.6611 25.7875 19.6611 25.0625C19.6611 24.3377 19.0736 23.7502 18.3488 23.7502H11.9745ZM10.6621 19.0625C10.6621 18.3377 11.2497 17.7502 11.9745 17.7502H24.3482C25.073 17.7502 25.6605 18.3377 25.6605 19.0625C25.6605 19.7875 25.073 20.375 24.3482 20.375H11.9745C11.2497 20.375 10.6621 19.7875 10.6621 19.0625ZM11.9741 11.7501C11.2492 11.7501 10.6616 12.3377 10.6616 13.0626C10.6616 13.7874 11.2492 14.375 11.9741 14.375H24.3477C25.0725 14.375 25.6601 13.7874 25.6601 13.0626C25.6601 12.3377 25.0725 11.7501 24.3477 11.7501H11.9741Z" fill="white"/>
</svg>
