<svg width="43" height="32" viewBox="0 0 43 32" fill="none" xmlns="http://www.w3.org/2000/svg">
<path d="M0.666748 5.92592C0.666748 2.65312 3.31988 0 6.59267 0H36.7408C40.0136 0 42.6667 2.65313 42.6667 5.92593V20.1482C42.6667 23.421 40.0136 26.0741 36.7408 26.0741H32.1667H26.9167L22.5539 30.9987C22.0822 31.531 21.2512 31.531 20.7796 30.9987L16.4167 26.0741H11.1667H6.59267C3.31988 26.0741 0.666748 23.4209 0.666748 20.1481V5.92592Z" fill="#28303F" fill-opacity="0.85"/>
<path d="M13.588 17.1157C12.0023 17.1157 10.8102 16.1493 10.7523 14.8125H11.9907C12.0602 15.5243 12.7431 16.0451 13.588 16.0509C14.6065 16.0451 15.3356 15.3102 15.3356 14.3148C15.3356 13.2963 14.5833 12.5556 13.5301 12.544C12.8588 12.544 12.3438 12.7697 12.0602 13.2847H10.8565L11.4005 8.62037H16.1458V9.70833H12.4537L12.1759 12.0579H12.2569C12.6042 11.7222 13.1944 11.4965 13.831 11.4907C15.4109 11.4965 16.5741 12.6655 16.5741 14.2801C16.5741 15.9294 15.3356 17.1157 13.588 17.1157ZM20.6079 17.1157C18.6692 17.1157 17.5292 15.5532 17.5292 12.8102C17.5292 10.0845 18.6808 8.50463 20.6079 8.50463C22.5292 8.50463 23.6808 10.0845 23.6866 12.8102C23.6808 15.5532 22.5465 17.1157 20.6079 17.1157ZM18.8023 12.8102C18.7965 14.8993 19.4736 16.0162 20.6079 16.0162C21.7363 16.0162 22.4134 14.8993 22.4134 12.8102C22.4134 10.7269 21.7306 9.58681 20.6079 9.58102C19.4794 9.58681 18.8023 10.7269 18.8023 12.8102ZM26.6903 12.6019C25.5444 12.6134 24.9194 11.7627 24.931 10.5185C24.9194 9.29167 25.5734 8.44097 26.6903 8.44676C27.8419 8.44097 28.4438 9.29167 28.4495 10.5185C28.4438 11.7685 27.8188 12.6134 26.6903 12.6019ZM25.8801 17L31.6324 8.62037H32.6856L26.9333 17H25.8801ZM25.8801 10.5185C25.8859 11.2882 26.1521 11.7859 26.6903 11.7917C27.2343 11.7859 27.4889 11.2882 27.4889 10.5185C27.4889 9.7662 27.2516 9.25116 26.6903 9.25694C26.1521 9.26852 25.8859 9.77199 25.8801 10.5185ZM30.2204 15.0903C30.2146 13.8519 30.8627 13.0012 31.9796 13.0069C33.1255 13.0012 33.7331 13.8519 33.7389 15.0903C33.7331 16.3287 33.1081 17.1736 31.9796 17.1736C30.8396 17.1736 30.2146 16.3229 30.2204 15.0903ZM31.1694 15.0903C31.1752 15.8484 31.4414 16.3519 31.9796 16.3519C32.5236 16.3519 32.7782 15.8484 32.7782 15.0903C32.7782 14.3264 32.541 13.8171 31.9796 13.8171C31.4472 13.8287 31.1752 14.3322 31.1694 15.0903Z" fill="white"/>
</svg>
