<svg width="43" height="45" viewBox="0 0 43 45" fill="none" xmlns="http://www.w3.org/2000/svg">
<path fill-rule="evenodd" clip-rule="evenodd" d="M21.5491 0C22.1653 0 22.6648 0.499517 22.6648 1.1157V5.95041H26.9608C28.1247 5.95041 29.0683 6.89395 29.0683 8.05785V11.1232C29.1441 11.1609 29.2185 11.2038 29.2909 11.2521C31.833 12.9492 34.4535 15.9435 36.7079 19.0477C38.9782 22.1739 40.953 25.5182 42.1855 28.0153C42.887 29.4368 41.8068 30.9917 40.3119 30.9917H28.7947C28.5053 32.4101 27.8054 33.7247 26.7664 34.7636C25.3716 36.1585 23.4796 36.9422 21.507 36.9422C19.5343 36.9422 17.6424 36.1585 16.2475 34.7636C15.2086 33.7247 14.5088 32.4101 14.2192 30.9917H2.68613C1.17946 30.9917 0.104155 29.4166 0.821323 27.9964C2.05866 25.5462 4.03389 22.2352 6.29872 19.1181C8.54856 16.0217 11.1544 13.0179 13.6684 11.2735C13.7575 11.2117 13.8497 11.1581 13.9443 11.1126V8.05785C13.9443 6.89394 14.8878 5.95041 16.0517 5.95041H20.4334V1.1157C20.4334 0.499517 20.933 0 21.5491 0ZM16.1757 10.9091H26.8369V8.18182H16.1757V10.9091ZM12.3132 43.4575C11.7795 43.1493 11.5968 42.467 11.9048 41.9334L13.3924 39.3567C13.7005 38.8232 14.3828 38.6403 14.9165 38.9484C15.4501 39.2565 15.633 39.9389 15.3249 40.4724L13.8373 43.0491C13.5292 43.5827 12.8468 43.7655 12.3132 43.4575ZM21.544 39.794C22.1601 39.794 22.6597 40.2935 22.6597 40.9097V43.8849C22.6597 44.5011 22.1601 45.0006 21.544 45.0006C20.9278 45.0006 20.4283 44.5011 20.4283 43.8849V40.9097C20.4283 40.2935 20.9278 39.794 21.544 39.794ZM31.1944 41.9334C31.5025 42.467 31.3197 43.1493 30.786 43.4575C30.2524 43.7655 29.5701 43.5827 29.2619 43.0491L27.7743 40.4724C27.4662 39.9389 27.6491 39.2565 28.1827 38.9484C28.7164 38.6403 29.3987 38.8232 29.7068 39.3567L31.1944 41.9334ZM8.10394 20.4298C10.2986 17.4092 12.7071 14.6723 14.892 13.1405H28.1003C30.2915 14.6193 32.7046 17.3326 34.9023 20.3589C37.0265 23.2839 38.8808 26.4047 40.0637 28.7603H2.93635C4.12599 26.4427 5.98273 23.3491 8.10394 20.4298Z" fill="white"/>
</svg>
