<svg width="20" height="20" viewBox="0 0 20 20" fill="none" xmlns="http://www.w3.org/2000/svg">
<path d="M1.01172 18.834C0.601562 18.4355 0.613281 17.7559 1.01172 17.3574L8.51172 9.8457L1.01172 2.3457C0.613281 1.94727 0.613281 1.2793 1.01172 0.869141C1.41016 0.447266 2.10156 0.458984 2.5 0.869141L10 8.36914L17.5 0.869141C17.8984 0.458984 18.5781 0.458984 18.9883 0.869141C19.3984 1.26758 19.3867 1.94727 18.9883 2.3457L11.4883 9.8457L18.9883 17.3574C19.3867 17.7559 19.3867 18.4238 18.9883 18.834C18.5898 19.2441 17.8984 19.2324 17.5 18.834L10 11.334L2.5 18.834C2.10156 19.2324 1.42188 19.2324 1.01172 18.834Z" fill="white"/>
</svg>
