<svg width="40" height="41" viewBox="0 0 40 41" fill="none" xmlns="http://www.w3.org/2000/svg">
<path d="M37.8591 40.1082H2.00496C1.72338 40.1082 1.44497 40.0488 1.18784 39.934C0.930722 39.8192 0.700655 39.6516 0.512622 39.442C0.324589 39.2324 0.182807 38.9856 0.0965055 38.7175C0.0102041 38.4495 -0.0186815 38.1663 0.0117292 37.8864C0.55588 32.9837 2.8889 28.4538 6.56428 25.1638C10.2397 21.8738 14.9992 20.0547 19.932 20.0547C24.8648 20.0547 29.6244 21.8738 33.2998 25.1638C36.9752 28.4538 39.3082 32.9837 39.8523 37.8864C39.8828 38.1663 39.8539 38.4495 39.7676 38.7175C39.6813 38.9856 39.5395 39.2324 39.3515 39.442C39.1634 39.6516 38.9334 39.8192 38.6762 39.934C38.4191 40.0488 38.1407 40.1082 37.8591 40.1082Z" fill="white"/>
<path d="M21.3507 32.7024L30.7875 23.2476C27.5485 21.1621 23.7774 20.0536 19.9251 20.0547C16.0728 20.0558 12.3023 21.1663 9.06445 23.2536L18.5133 32.7024C18.8892 33.0785 19.3992 33.2899 19.931 33.29C20.4634 33.29 20.974 33.0786 21.3507 32.7024Z" fill="#C9DFAC"/>
<path d="M19.9212 24.0632C17.5416 24.0632 15.2154 23.3575 13.2369 22.0355C11.2583 20.7135 9.71615 18.8344 8.8055 16.6359C7.89486 14.4374 7.6566 12.0183 8.12084 9.68435C8.58508 7.35045 9.73098 5.20663 11.4136 3.52398C13.0963 1.84133 15.2401 0.695431 17.574 0.231189C19.9079 -0.233053 22.3271 0.00521312 24.5255 0.915856C26.724 1.8265 28.6031 3.36862 29.9252 5.3472C31.2472 7.32579 31.9528 9.65197 31.9528 12.0316C31.9491 15.2214 30.6803 18.2796 28.4248 20.5351C26.1692 22.7907 23.1111 24.0595 19.9212 24.0632Z" fill="#C9DFAC"/>
<path d="M8.0791 14.0391C8.55041 16.8414 9.99951 19.3861 12.1691 21.2213C14.3388 23.0565 17.0885 24.0635 19.9302 24.0635C22.7719 24.0635 25.5217 23.0565 27.6913 21.2213C29.8609 19.3861 31.31 16.8414 31.7813 14.0391H8.0791Z" fill="#FFF9BE"/>
</svg>
